Patient4_TMGait_0pt3_03_right_29_GRF.mot
version=1
nRows=38
nColumns=19
inDegrees=no
endheader
time	F1x	F1y	F1z	M1x	M1y	M1z	F2x	F2y	F2z	M2x	M2y	M2z	EC1x	EC1y	EC1z	EC2x	EC2y	EC2z
54.11	-6.7967	754.3168	54.0094	-294.7791	-53.2041	717.9425	-0.3203	12.2071	-3.5941	4.0414	3.7069	5.255	-0.0592	0.0182	-0.0073	-0.0462	0.0165	0.9585
54.1289	-6.7501	765.6225	53.8823	-299.3468	-52.611	726.1701	-0.58954	9.1727	-2.5059	3.0402	2.6973	4.4043	-0.0592	0.0182	-0.0073	-0.0462	0.0165	0.9585
54.1477	-7.1305	780.7729	54.1238	-305.4368	-52.426	737.5679	-0.67519	6.4293	-1.5379	2.1379	1.7636	3.5693	-0.0592	0.0182	-0.0073	-0.0462	0.0165	0.9585
54.1666	-7.9324	799.6392	54.7977	-312.9736	-52.7276	752.0651	-0.64682	4.2435	-0.77249	1.4211	1.0006	2.8798	-0.0592	0.0182	-0.0073	-0.0462	0.0165	0.9585
54.1854	-8.994	821.4068	55.884	-321.6129	-53.4533	768.9212	-0.56008	2.6791	-0.2252	0.91006	0.43674	2.3826	-0.0592	0.0182	-0.0073	-0.0462	0.0165	0.9585
54.2043	-10.0339	844.3019	57.3086	-330.6365	-54.4451	786.4872	-0.45556	1.6701	0.12695	0.58236	0.060716	2.0586	-0.0592	0.0182	-0.0073	-0.0462	0.0165	0.9585
54.2231	-10.738	865.5245	58.9574	-338.9318	-55.4998	802.1921	-0.36142	1.0781	0.32363	0.39225	-0.15999	1.8534	-0.0592	0.0182	-0.0073	-0.0462	0.0165	0.9585
54.242	-10.8431	881.6299	60.665	-345.1463	-56.3884	812.9256	-0.29137	0.73473	0.41141	0.28373	-0.26696	1.6894	-0.0592	0.0182	-0.0073	-0.0462	0.0165	0.9585
54.2609	-10.1774	889.3717	62.2101	-348.0199	-56.8648	815.7916	-0.24925	0.46597	0.43484	0.19779	-0.30221	1.4693	-0.0592	0.0182	-0.0073	-0.0462	0.0165	0.9585
54.2797	-8.6576	886.5958	63.3438	-346.7361	-56.6865	808.8981	-0.23494	0.1071	0.42911	0.077611	-0.30066	1.0834	-0.0592	0.0182	-0.0073	-0.0462	0.0165	0.9585
54.2986	-6.2797	872.8032	63.8482	-341.1352	-55.661	791.8485	-0.24541	-0.48854	0.4203	-0.12756	-0.28752	0.42542	-0.0592	0.0182	-0.0073	-0.0462	0.0165	0.9585
54.3174	-3.0771	849.3255	63.6028	-331.7764	-53.6916	765.8636	-0.27288	-1.4418	0.42593	-0.45883	-0.28512	-0.60098	-0.0592	0.0182	-0.0073	-0.0462	0.0165	0.9585
54.3363	0.91353	819.0698	62.6282	-319.8299	-50.8037	733.5295	-0.30384	-2.8235	0.4566	-0.93962	-0.31224	-2.051	-0.0592	0.0182	-0.0073	-0.0462	0.0165	0.9585
54.3551	5.638	785.9089	61.0892	-306.8309	-47.1545	698.2637	-0.32052	-4.6131	0.51357	-1.5617	-0.37643	-3.8969	-0.0592	0.0182	-0.0073	-0.0462	0.0165	0.9585
54.374	11.0198	753.9527	59.2467	-294.3933	-42.9917	663.685	-0.30311	-6.6522	0.58682	-2.2695	-0.47209	-5.9819	-0.0592	0.0182	-0.0073	-0.0462	0.0165	0.9585
54.3929	16.9515	726.8366	57.3816	-283.9315	-38.589	633.0016	-0.22903	-8.5803	0.6509	-2.9371	-0.57959	-7.952	-0.0592	0.0182	-0.0073	-0.0462	0.0165	0.9585
54.4117	23.269	707.042	55.7287	-276.3986	-34.2033	608.4331	-0.071382	-9.7606	0.66755	-3.3424	-0.66816	-9.1817	-0.0592	0.0182	-0.0073	-0.0462	0.0165	0.9585
54.4306	29.7638	695.4094	54.4402	-272.0984	-30.0449	590.8129	0.19856	-9.2142	0.57852	-3.1422	-0.68713	-8.7109	-0.0592	0.0182	-0.0073	-0.0462	0.0165	0.9585
54.4494	36.1933	690.9754	53.5769	-270.621	-26.2699	579.4867	0.60722	-5.5885	0.30602	-1.8603	-0.56485	-5.2079	-0.0592	0.0182	-0.0073	-0.0462	0.0165	0.9585
54.4683	42.2429	691.1207	53.1153	-270.9015	-23.003	572.4694	1.1679	2.8173	-0.24525	1.102	-0.20663	3.0073	-0.0592	0.0182	-0.0073	-0.0462	0.0165	0.9585
54.4871	47.5147	692.051	52.9651	-271.4101	-20.3521	566.8509	1.8653	17.9106	-1.1777	6.4142	0.49964	17.8201	-0.0592	0.0182	-0.0073	-0.0462	0.0165	0.9585
54.506	51.567	689.567	52.9775	-270.4591	-18.3937	559.4126	2.6339	41.4838	-2.579	14.7047	1.6707	41.015	-0.0592	0.0182	-0.0073	-0.0462	0.0165	0.9585
54.5249	53.9771	679.8823	52.9438	-266.5376	-17.1486	547.2799	3.3112	74.6672	-4.49	26.367	3.4078	73.7383	-0.0592	0.0182	-0.0073	-0.0462	0.0165	0.9585
54.5437	54.4367	660.3483	52.6062	-258.611	-16.5504	528.4644	3.383	117.3103	-6.8879	41.3422	5.866	115.8852	-0.0592	0.0182	-0.0073	-0.0462	0.0165	0.9585
54.5626	52.857	629.9956	51.6949	-246.3347	-16.4311	502.2395	1.9793	167.4647	-9.7349	58.9349	9.3002	165.5877	-0.0592	0.0182	-0.0073	-0.0462	0.0165	0.9585
54.5814	49.4382	589.7843	50.0024	-230.1384	-16.5531	469.3039	-1.1836	221.5114	-12.996	77.8613	13.7557	219.2686	-0.0592	0.0182	-0.0073	-0.0462	0.0165	0.9585
54.6003	44.6696	542.4632	47.4759	-211.1553	-16.6763	431.6579	-5.6264	276.1708	-16.5163	96.9684	18.8973	273.5818	-0.0592	0.0182	-0.0073	-0.0462	0.0165	0.9585
54.6191	39.2256	491.8111	44.2274	-190.9145	-16.6018	392.0224	-10.6686	330.0007	-20.0112	115.7525	24.2031	327.0098	-0.0592	0.0182	-0.0073	-0.0462	0.0165	0.9585
54.638	33.7608	441.3933	40.4585	-170.8524	-16.1961	352.9155	-15.7304	382.1322	-23.2465	133.9092	29.2474	378.6479	-0.0592	0.0182	-0.0073	-0.0462	0.0165	0.9585
54.6569	28.7367	393.6438	36.3982	-151.9474	-15.4173	315.9882	-20.3983	431.5219	-26.083	151.0632	33.7571	427.4387	-0.0592	0.0182	-0.0073	-0.0462	0.0165	0.9585
54.6757	24.3449	349.525	32.2794	-134.5883	-14.3349	281.8075	-24.3725	477.0827	-28.5025	166.8121	37.6135	472.2888	-0.0592	0.0182	-0.0073	-0.0462	0.0165	0.9585
54.6946	20.5388	308.7869	28.2928	-118.6732	-13.0901	250.0787	-27.4554	518.0047	-30.6091	180.842	40.8487	512.3774	-0.0592	0.0182	-0.0073	-0.0462	0.0165	0.9585
54.7134	17.1461	270.5344	24.5497	-103.8351	-11.8231	220.0639	-29.5664	553.9843	-32.5569	193.0173	43.5827	547.3614	-0.0592	0.0182	-0.0073	-0.0462	0.0165	0.9585
54.7323	13.9814	233.8073	21.0946	-89.6735	-10.6346	191.0063	-30.7107	585.3411	-34.5001	203.4289	45.9617	577.487	-0.0592	0.0182	-0.0073	-0.0462	0.0165	0.9585
54.7511	10.9097	198.0114	17.9367	-75.9257	-9.5866	162.4664	-30.9368	612.9701	-36.564	212.3783	48.1157	603.5613	-0.0592	0.0182	-0.0073	-0.0462	0.0165	0.9585
54.77	7.8834	163.123	15.0742	-62.5516	-8.7054	134.4604	-30.351	637.9878	-38.838	220.2532	50.1592	626.6343	-0.0592	0.0182	-0.0073	-0.0462	0.0165	0.9585
54.7889	4.9671	129.7127	12.5083	-49.7457	-7.9751	107.4724	-29.1228	661.2956	-41.3526	227.3758	52.1716	647.5862	-0.0592	0.0182	-0.0073	-0.0462	0.0165	0.9585
54.8077	2.331	98.7667	10.2457	-37.8737	-7.3396	82.3226	-27.4642	683.2593	-44.0337	233.8974	54.1487	666.8266	-0.0592	0.0182	-0.0073	-0.0462	0.0165	0.9585
